<?xml version="1.0" encoding="utf-8"?>
<!-- Generator: Adobe Illustrator 22.0.1, SVG Export Plug-In . SVG Version: 6.00 Build 0)  -->
<svg version="1.1" xmlns="http://www.w3.org/2000/svg" xmlns:xlink="http://www.w3.org/1999/xlink" x="0px" y="0px"
	 viewBox="0 0 2400 600" style="enable-background:new 0 0 2400 600;" xml:space="preserve">
<style type="text/css">
	.st0{fill:none;stroke:#A67C52;stroke-width:0.9475;stroke-miterlimit:10;}
	.st1{fill:#FFFFFF;}
</style>
<g id="图层_1">
	<g>
		<rect width="600" height="600"/>
	</g>
	<rect x="-149.5" y="613.5" class="st0" width="289" height="289"/>
</g>
<g id="图层_2">
	<g>
		<rect x="84" y="83" class="st1" width="143" height="143"/>
		<rect x="344" y="83" class="st1" width="143" height="143"/>
		<rect x="373" y="372" class="st1" width="143" height="143"/>
		<rect x="84" y="372" class="st1" width="143" height="143"/>
		<rect x="163" y="125" class="st1" width="275" height="59"/>
		<rect x="169" y="414" class="st1" width="275" height="59"/>
		<rect x="18" y="269" transform="matrix(6.123234e-17 -1 1 6.123234e-17 -143 454)" class="st1" width="275" height="59"/>
	</g>
	<g>
		<g>
			<path d="M849.1,358c-0.1,0.8-0.3,2.9-0.7,6.3c-0.4,3.5-0.7,7.3-1.1,11.4c-0.7,0-1.4,0-2.2,0c-0.8,0-1.5,0-2.2,0
				c-20.4,0-38.6-2.6-54.5-7.7c-15.9-5.1-28.9-12.6-39.2-22.4c-7.1-6.8-12.7-14.9-16.9-24.3c-4.1-9.5-6.2-20.2-6.2-32.4
				c0-10.9,2-20.8,6.1-29.8c4.1-9,9.5-16.8,16.1-23.5c9.6-9.7,22.5-17.4,38.8-23.1c16.2-5.7,33.6-8.5,52.1-8.5c0.9,0,2,0,3.1,0
				c1.2,0,2,0,2.5,0c0.1,1.5,0.3,3.9,0.5,7.2c0.3,3.3,0.5,6.9,0.9,10.7c-0.8,0-1.6,0-2.1,0s-1.3,0-2.1,0c-10.5,0-21.3,1.2-32.5,3.5
				c-11.2,2.3-20.9,5.8-29,10.4c-10.6,6-18.7,13.7-24.4,23.2c-5.7,9.4-8.5,19.6-8.5,30.4c0,11.3,2.6,21.6,7.7,30.8
				c5.1,9.2,13.2,17,24.2,23.3c9,5.2,19.2,9,30.3,11.3c11.2,2.3,22.3,3.5,33.4,3.5c0.5,0,1.3,0,2.4,0
				C846.7,358.2,847.9,358.1,849.1,358z"/>
			<path d="M953.3,261.3c-4.6,1.1-11.7,3.4-21.1,6.9c-9.5,3.5-20.4,8.2-32.8,14.1c0,0.9,0,5.1-0.1,12.6c-0.1,7.5-0.1,14.5-0.1,20.9
				c0,9.9,0.1,21.6,0.3,35.1c0.2,13.6,0.3,21.1,0.3,22.6h-19.8c0-1.4,0.1-6.1,0.3-14.1c0.2-7.9,0.3-21.5,0.3-40.8
				c0-7.8,0-18.7-0.1-32.6c-0.1-14-0.2-27.1-0.4-39.5h19.5v19.1l0.1,0.1c9.5-5.4,18.8-10,28-13.9c9.2-3.9,16.6-6.6,22.1-8
				L953.3,261.3z"/>
			<path d="M1086.2,251.6c-16.3,36-33.5,74.2-51.5,114.6c-18,40.4-27.6,62-28.8,64.6l-17.3-6.4l25.9-53.8
				c-0.7-1.7-5.9-13.9-15.7-36.6c-9.8-22.8-21.8-49.9-35.9-81.6l18.8-8.2c9.2,23.3,18.6,46.2,28.1,69c9.5,22.7,14.6,34.7,15.1,35.8
				h0.3c0.5-0.8,5.3-12,14.3-33.4c9-21.4,18.9-45.1,29.6-70.9L1086.2,251.6z"/>
			<path d="M1224.9,306.1c0,13-2.9,24-8.7,33.1c-5.8,9.1-13.6,16.3-23.3,21.5c-8.5,4.5-17.9,7.7-28.1,9.5
				c-10.2,1.8-19.9,2.8-29.1,2.8l0.5,57.6h-20c0.1-1.4,0.2-13,0.3-34.7c0.1-21.7,0.2-43.5,0.2-65.3c0-11,0-23.7-0.1-38.2
				c-0.1-14.5-0.2-30.1-0.4-46.9c2.7-0.1,5.3-0.1,8-0.1c2.6,0,4.7,0,6.1,0c17.6,0,31.2,0.9,40.9,2.8c9.7,1.8,18.5,5.1,26.5,9.8
				c8.4,4.9,15.1,11.5,20,19.8C1222.5,285.9,1224.9,295.4,1224.9,306.1z M1204.9,306.8c0-8.2-1.9-15.4-5.8-21.6
				c-3.8-6.2-8.9-11.1-15.1-14.7c-5.6-3.2-12-5.5-19.1-7c-7.2-1.5-14.9-2.2-23.3-2.2c-0.9,0-1.8,0-2.8,0c-0.9,0-1.9,0-2.9,0
				c0,1.4-0.1,6.4-0.2,14.9c-0.1,8.5-0.2,23.1-0.2,43.9c0,4.3,0,10.4,0.1,18.3c0,7.9,0.1,14.1,0.1,18.8c7.9,0,15.7-0.7,23.6-2.2
				c7.9-1.5,14.3-3.4,19.5-6c8.5-4.2,15-9.7,19.5-16.7C1202.7,325.5,1204.9,317,1204.9,306.8z"/>
			<path d="M1327.8,357.9l-2.3,15.9c-0.6,0.1-2,0.2-4.3,0.2c-2.3,0.1-4.3,0.1-6,0.1c-17.2,0-30.1-3.6-38.9-10.7
				c-8.8-7.2-13.2-18.1-13.2-32.9c0-9.3,0.1-19.2,0.2-29.9c0.1-10.6,0.2-23.8,0.2-39.5h-21.1v-14.7h22.2v-29.7h18.2v29.7h44.9v14.7
				h-44.9c0,1.8-0.1,7-0.2,15.7c-0.1,8.7-0.2,15.1-0.2,19.3c0,3.5,0,7.8,0,12.9c0,5.1,0,11.2,0,18.2c0,10.9,2.9,18.7,8.8,23.5
				c5.9,4.8,14.9,7.2,27.1,7.2c1.5,0,3.3,0,5.4-0.1C1325.9,357.9,1327.3,357.9,1327.8,357.9z"/>
			<path d="M1471.2,310c0,9.7-1.7,19-5.2,27.9c-3.5,8.9-8.5,16.4-15,22.7c-5.5,5.3-11.7,9.3-18.4,12c-6.7,2.8-14.4,4.1-22.9,4.1
				c-8,0-15.6-1.4-22.6-4.1s-13.3-6.7-18.8-12c-6.4-6.1-11.3-13.6-14.7-22.6c-3.5-9-5.2-18.4-5.2-28.4c0-9.6,1.5-18.5,4.5-26.5
				c3-8.1,7.6-15.3,13.9-21.8c5.6-5.9,12.1-10.4,19.6-13.5c7.4-3.1,15.3-4.7,23.6-4.7c8.7,0,16.6,1.4,23.7,4.3
				c7.1,2.9,13.4,7.2,18.9,13c6.4,6.6,11.1,14,14.2,22.3C1469.6,291.1,1471.2,300.1,1471.2,310z M1451.1,310.9
				c0-7.9-1.3-15.5-3.8-23c-2.6-7.4-6.5-13.7-11.9-18.8c-3.3-3.2-7.1-5.6-11.6-7.3c-4.5-1.7-9.1-2.6-14-2.6
				c-5.8,0-10.8,0.9-15.1,2.8c-4.3,1.8-8.3,4.7-12,8.7c-4.4,4.5-7.9,10.3-10.5,17.3c-2.6,7-3.8,14.3-3.8,21.8
				c0,8.5,1.3,16.4,3.9,23.5c2.6,7.2,6.8,13.3,12.5,18.5c3.3,2.9,7,5.2,11.3,6.7c4.3,1.5,8.8,2.3,13.6,2.3c5.3,0,10.2-0.9,14.7-2.8
				c4.6-1.8,8.6-4.5,12-8c4.8-4.9,8.4-10.7,10.9-17.6C1449.8,325.6,1451.1,318.4,1451.1,310.9z"/>
			<path d="M1716,366.8l-19.5,10.1c-0.3-0.9-3-7.2-8-18.7s-11.6-26.4-19.9-44.5h-74.3c-8.8,19.5-15.6,34.6-20.4,45.3
				c-4.8,10.7-7.4,16.7-7.9,17.9l-16.8-9.1c2.2-4.3,11.1-23.5,26.9-57.5c15.8-34,32.1-69.7,49.1-107.2h16.3
				c16.7,37.5,33.2,73.8,49.3,108.9C1706.9,347.1,1715.3,365.3,1716,366.8z M1661.5,297.6c-4.4-10.2-9.1-20.9-14-32
				c-4.9-11.1-10.1-22.8-15.5-34.9l-0.5,0.1c-4.2,9.2-9.3,20.5-15.2,33.9c-5.9,13.4-10.9,24.4-14.7,32.9l-0.1,0.1h60.1L1661.5,297.6
				z"/>
			<path d="M1809.5,357.9l-2.3,15.9c-0.6,0.1-2,0.2-4.3,0.2c-2.3,0.1-4.3,0.1-6,0.1c-17.2,0-30.1-3.6-38.9-10.7
				c-8.8-7.2-13.2-18.1-13.2-32.9c0-9.3,0.1-19.2,0.2-29.9c0.1-10.6,0.2-23.8,0.2-39.5h-21.1v-14.7h22.2v-29.7h18.2v29.7h44.9v14.7
				h-44.9c0,1.8-0.1,7-0.2,15.7c-0.1,8.7-0.2,15.1-0.2,19.3c0,3.5,0,7.8,0,12.9c0,5.1,0,11.2,0,18.2c0,10.9,2.9,18.7,8.8,23.5
				c5.9,4.8,14.9,7.2,27.1,7.2c1.5,0,3.3,0,5.4-0.1C1807.5,357.9,1808.9,357.9,1809.5,357.9z"/>
			<path d="M1910.2,357.9l-2.3,15.9c-0.6,0.1-2,0.2-4.3,0.2c-2.3,0.1-4.3,0.1-6,0.1c-17.2,0-30.1-3.6-38.9-10.7
				c-8.8-7.2-13.2-18.1-13.2-32.9c0-9.3,0.1-19.2,0.2-29.9c0.1-10.6,0.2-23.8,0.2-39.5h-21.1v-14.7h22.2v-29.7h18.2v29.7h44.9v14.7
				h-44.9c0,1.8-0.1,7-0.2,15.7c-0.1,8.7-0.2,15.1-0.2,19.3c0,3.5,0,7.8,0,12.9c0,5.1,0,11.2,0,18.2c0,10.9,2.9,18.7,8.8,23.5
				c5.9,4.8,14.9,7.2,27.1,7.2c1.5,0,3.3,0,5.4-0.1C1908.3,357.9,1909.7,357.9,1910.2,357.9z"/>
			<path d="M2029.2,302c0,20.7,0,37.6-0.1,50.7c-0.1,13.1-0.1,20.1-0.1,21.1c-0.8,0.1-4.7,0.4-11.7,0.9c-6.9,0.5-15.9,0.8-26.9,0.8
				c-6.9,0-13.8-0.6-20.7-1.9c-6.9-1.3-12.9-3.1-17.9-5.4c-6.7-3.1-12.1-7.3-16.2-12.7c-4.1-5.4-6.2-11.8-6.2-19.3
				c0-7.9,2.4-14.8,7.3-20.6c4.9-5.8,11.7-10.5,20.4-14.1c5.4-2.3,12.7-4.3,21.8-6.1c9.1-1.8,19.4-3.2,31.1-4.1
				c-0.5-6.5-2.1-11.9-4.9-16.1c-2.8-4.2-6.8-7.4-12.2-9.5c-3.7-1.5-7.8-2.6-12.3-3.2c-4.5-0.6-9.8-0.9-15.8-0.9
				c-3.8,0-7,0.1-9.6,0.3c-2.6,0.2-6.2,0.4-10.7,0.6l2-16.7c1.3-0.1,3.7-0.2,7.5-0.4c3.7-0.2,8.8-0.3,15.2-0.3
				c9.9,0,18.7,1,26.4,3.1c7.7,2.1,14.2,5.4,19.3,10c4.8,4.4,8.4,9.7,10.8,16.1C2028,280.6,2029.2,289.8,2029.2,302z M2010,332.2
				c0-2.8,0-6.4,0-10.8c0-4.3,0-9.4-0.1-15.1c-3.7,0.2-10.1,0.9-19.3,2.2c-9.2,1.3-16.9,3.2-23.2,5.6c-4.7,1.8-8.8,4.4-12.5,7.9
				c-3.6,3.5-5.5,7.9-5.5,13.1c0,5.7,1.5,10.3,4.6,13.7c3.1,3.5,7.3,6.1,12.7,8c4.1,1.4,8.6,2.4,13.6,3.1c5,0.6,10.2,0.9,15.7,0.9
				c1.7,0,3.7,0,6.1-0.1c2.4-0.1,5-0.2,7.7-0.3c0-0.6,0-3.3,0.1-8.3C2010,347.2,2010,340.6,2010,332.2z"/>
			<path d="M2157.7,357.2l-1.5,16.8c-0.7,0-1.7,0-3.2,0c-1.5,0-2.7,0-3.7,0c-10.8,0-20.9-1-30.2-3.1c-9.4-2-17.8-5.1-25.2-9.1
				c-10.1-5.5-18-12.8-23.7-22c-5.7-9.1-8.5-19.3-8.5-30.5c0-10,2.6-19.3,7.8-27.7c5.2-8.4,12-15.3,20.3-20.6
				c7.5-4.9,16.5-8.6,27-11.1c10.5-2.6,21.4-3.8,32.6-3.8c0.9,0,1.9,0,2.8,0c1,0,1.7,0,2.3,0l1,16.8c-0.6,0-1.2,0-1.9,0
				c-0.7,0-1.4,0-1.9,0c-9.3,0-17.2,0.6-23.8,1.7c-6.6,1.1-12.9,3-19.1,5.6c-8.3,3.3-14.9,8.6-19.7,15.8c-4.9,7.2-7.3,14.9-7.3,23.1
				c0,9.8,2.3,18,6.8,24.7c4.6,6.7,10.6,11.8,18.1,15.4c5.9,2.8,12.5,4.9,19.8,6.1c7.4,1.3,15.1,1.9,23.3,1.9c1.3,0,2.8,0,4.5,0
				C2156,357.2,2157.1,357.2,2157.7,357.2z"/>
			<path d="M2210.5,373.5h-19.8c0.1-1.5,0.2-12.8,0.3-33.9c0.1-21.1,0.2-42.7,0.2-64.8c0-9.5,0-21.4-0.1-35.8
				c0-14.4-0.2-30.9-0.4-49.6h19.8c-0.2,14.8-0.4,32-0.4,51.6c0,19.6-0.1,31.2-0.1,34.9c0,8.6,0.1,26.7,0.3,54.1
				C2210.4,357.6,2210.5,372.1,2210.5,373.5z M2300.4,371l-12,10.9c-18.5-18.8-35-35.2-49.5-49.2c-14.5-14-22.5-21.7-24-23.1v-0.3
				c2-1.8,10.8-10.7,26.4-26.7c15.6-15.9,28.2-29,37.8-39.2l12.1,12.5c-10,9.6-20.4,19.8-31.3,30.4c-10.9,10.7-17.8,17.3-20.5,20
				v0.1C2263.9,332.4,2284.2,353.8,2300.4,371z"/>
		</g>
	</g>
</g>
</svg>
