<?xml version="1.0" encoding="utf-8"?>
<!-- Generator: Adobe Illustrator 22.0.1, SVG Export Plug-In . SVG Version: 6.00 Build 0)  -->
<svg version="1.1" id="图层_1" xmlns="http://www.w3.org/2000/svg" xmlns:xlink="http://www.w3.org/1999/xlink" x="0px" y="0px"
	 viewBox="0 0 2400 600" style="enable-background:new 0 0 2400 600;" xml:space="preserve">
<style type="text/css">
	.st0{fill:none;stroke:#A67C52;stroke-width:0.9475;stroke-miterlimit:10;}
	.st1{fill:#FFFFFF;}
</style>
<g id="图层_1_1_">
	<g>
		<rect x="-22.4" y="740.1" width="2400" height="600"/>
	</g>
	<rect x="444.1" y="1099.6" class="st0" width="289" height="289"/>
</g>
<g id="图层_2_1_">
	<g>
		<rect y="81.5" class="st1" width="143" height="143"/>
		<rect x="268" y="81.5" class="st1" width="143" height="143"/>
		<rect x="289" y="370.5" class="st1" width="143" height="143"/>
		<rect y="370.5" class="st1" width="143" height="143"/>
		<rect x="79" y="123.5" class="st1" width="275" height="59"/>
		<rect x="85" y="412.5" class="st1" width="275" height="59"/>
		<rect x="42" y="159.5" class="st1" width="59" height="275"/>
	</g>
	<g>
		<g>
			<path class="st1" d="M686,352.3c-0.1,0.7-0.3,2.8-0.7,6.2s-0.7,7.1-1,11c-0.7,0-1.4,0-2.1,0c-0.8,0-1.5,0-2.1,0
				c-19.9,0-37.5-2.5-53-7.5s-28.2-12.3-38.1-21.8c-6.9-6.6-12.4-14.5-16.4-23.7s-6-19.7-6-31.5c0-10.6,2-20.2,6-29
				c4-8.7,9.2-16.4,15.6-22.9c9.4-9.4,21.9-16.9,37.7-22.5c15.8-5.5,32.7-8.3,50.7-8.3c0.9,0,1.9,0,3.1,0c1.1,0,2,0,2.4,0
				c0.1,1.5,0.2,3.8,0.5,7c0.2,3.2,0.5,6.7,0.9,10.4c-0.8,0-1.5,0-2.1,0s-1.3,0-2.1,0c-10.2,0-20.7,1.1-31.7,3.4
				c-10.9,2.2-20.3,5.6-28.2,10.1c-10.3,5.9-18.2,13.4-23.7,22.5c-5.5,9.2-8.3,19-8.3,29.6c0,11,2.5,21,7.5,30s12.8,16.5,23.6,22.6
				c8.8,5,18.6,8.7,29.5,11s21.7,3.4,32.4,3.4c0.5,0,1.3,0,2.3,0C683.7,352.4,684.8,352.4,686,352.3z"/>
			<path class="st1" d="M787.4,258.2c-4.5,1.1-11.3,3.3-20.6,6.7c-9.2,3.4-19.9,8-31.9,13.7c0,0.9,0,5-0.1,12.3s-0.1,14.1-0.1,20.3
				c0,9.6,0.1,21,0.3,34.2s0.3,20.5,0.3,22H716c0-1.4,0.1-5.9,0.2-13.7c0.2-7.7,0.2-21,0.2-39.7c0-7.6,0-18.1-0.1-31.7
				s-0.2-26.4-0.4-38.5h18.9v18.6l0.1,0.1c9.2-5.2,18.3-9.7,27.2-13.5c9-3.8,16.1-6.4,21.5-7.8L787.4,258.2z"/>
			<path class="st1" d="M916.6,248.8c-15.9,35-32.6,72.2-50.1,111.5s-26.9,60.3-28,62.8l-16.9-6.2l25.2-52.4
				c-0.7-1.6-5.8-13.5-15.3-35.6c-9.6-22.1-21.2-48.6-34.9-79.3l18.2-7.9c9,22.6,18.1,45,27.3,67.1c9.3,22.1,14.2,33.7,14.6,34.9
				h0.2c0.5-0.8,5.1-11.6,13.9-32.5c8.8-20.8,18.4-43.8,28.8-69L916.6,248.8z"/>
			<path class="st1" d="M1051.6,301.7c0,12.6-2.8,23.3-8.4,32.2c-5.6,8.8-13.2,15.8-22.7,20.9c-8.3,4.4-17.4,7.5-27.3,9.3
				s-19.4,2.7-28.3,2.7l0.5,56H946c0.1-1.4,0.2-12.6,0.3-33.8c0.1-21.1,0.2-42.3,0.2-63.5c0-10.7,0-23.1-0.1-37.2
				s-0.2-29.3-0.4-45.6c2.6-0.1,5.2-0.1,7.8-0.1s4.5,0,5.9,0c17.1,0,30.4,0.9,39.8,2.7s18,5,25.8,9.5c8.2,4.8,14.7,11.2,19.4,19.2
				C1049.3,282.1,1051.6,291.3,1051.6,301.7z M1032.1,302.4c0-8-1.9-15-5.6-21s-8.6-10.8-14.6-14.3c-5.5-3.1-11.7-5.3-18.6-6.8
				s-14.5-2.1-22.6-2.1c-0.9,0-1.8,0-2.7,0c-0.9,0-1.8,0-2.8,0c0,1.4-0.1,6.2-0.2,14.4c-0.1,8.2-0.2,22.5-0.2,42.7
				c0,4.2,0,10.2,0.1,17.8c0,7.6,0.1,13.7,0.1,18.3c7.6,0,15.3-0.7,22.9-2.1s14-3.4,18.9-5.8c8.3-4.1,14.6-9.5,18.9-16.2
				C1029.9,320.7,1032.1,312.3,1032.1,302.4z"/>
			<path class="st1" d="M1151.7,352.2l-2.2,15.5c-0.6,0.1-2,0.2-4.2,0.2c-2.2,0.1-4.2,0.1-5.8,0.1c-16.7,0-29.3-3.5-37.8-10.4
				c-8.5-7-12.8-17.6-12.8-32c0-9,0.1-18.7,0.2-29.1c0.1-10.3,0.2-23.2,0.2-38.5h-20.5v-14.3h21.6v-28.9h17.7v28.9h43.7V258H1108
				c0,1.7-0.1,6.8-0.2,15.3s-0.2,14.7-0.2,18.8c0,3.4,0,7.6,0,12.6s0,10.9,0,17.7c0,10.6,2.8,18.2,8.5,22.9c5.7,4.7,14.5,7,26.4,7
				c1.5,0,3.2,0,5.2-0.1C1149.9,352.2,1151.2,352.2,1151.7,352.2z"/>
			<path class="st1" d="M1291.1,305.5c0,9.4-1.7,18.5-5.1,27.1s-8.2,16-14.6,22.1c-5.4,5.1-11.3,9-17.9,11.7s-14,4-22.3,4
				c-7.8,0-15.1-1.3-22-4c-6.8-2.6-12.9-6.5-18.3-11.7c-6.2-5.9-11-13.3-14.3-22c-3.4-8.7-5.1-17.9-5.1-27.6c0-9.4,1.4-18,4.3-25.8
				c2.9-7.9,7.4-14.9,13.5-21.2c5.5-5.7,11.8-10.1,19-13.1c7.2-3.1,14.9-4.6,22.9-4.6c8.5,0,16.1,1.4,23,4.2s13,7,18.4,12.6
				c6.2,6.4,10.8,13.7,13.8,21.7C1289.6,287.1,1291.1,295.9,1291.1,305.5z M1271.6,306.4c0-7.6-1.2-15.1-3.7-22.3
				c-2.5-7.2-6.3-13.3-11.5-18.3c-3.2-3.1-6.9-5.5-11.3-7.1c-4.4-1.7-8.9-2.5-13.6-2.5c-5.6,0-10.5,0.9-14.6,2.7
				c-4.2,1.8-8.1,4.6-11.7,8.4c-4.3,4.4-7.7,10-10.2,16.8s-3.7,13.9-3.7,21.2c0,8.3,1.3,15.9,3.8,22.9s6.6,13,12.2,18
				c3.2,2.8,6.8,5,11,6.5s8.5,2.3,13.2,2.3c5.1,0,9.9-0.9,14.3-2.7c4.4-1.8,8.3-4.4,11.7-7.8c4.6-4.7,8.2-10.4,10.6-17.1
				C1270.4,320.7,1271.6,313.7,1271.6,306.4z"/>
			<path class="st1" d="M1529.3,360.8l-19,9.8c-0.3-0.9-2.9-7-7.8-18.2s-11.3-25.7-19.3-43.3h-72.3c-8.6,19-15.2,33.7-19.9,44.1
				c-4.7,10.4-7.2,16.2-7.7,17.5l-16.4-8.9c2.1-4.2,10.8-22.9,26.2-55.9c15.3-33.1,31.3-67.8,47.8-104.3h15.9
				c16.3,36.4,32.3,71.8,48,105.9C1520.5,341.6,1528.6,359.4,1529.3,360.8z M1476.3,293.4c-4.3-9.9-8.9-20.3-13.7-31.2
				c-4.8-10.8-9.8-22.2-15.1-34l-0.5,0.1c-4.1,8.9-9,19.9-14.8,33c-5.8,13-10.6,23.7-14.3,32l-0.1,0.1H1476.3L1476.3,293.4z"/>
			<path class="st1" d="M1620.2,352.2l-2.2,15.5c-0.6,0.1-2,0.2-4.2,0.2c-2.2,0.1-4.2,0.1-5.8,0.1c-16.7,0-29.3-3.5-37.8-10.4
				c-8.5-7-12.8-17.6-12.8-32c0-9,0.1-18.7,0.2-29.1c0.1-10.3,0.2-23.2,0.2-38.5h-20.5v-14.3h21.6v-28.9h17.7v28.9h43.7V258h-43.7
				c0,1.7-0.1,6.8-0.2,15.3s-0.2,14.7-0.2,18.8c0,3.4,0,7.6,0,12.6s0,10.9,0,17.7c0,10.6,2.8,18.2,8.5,22.9c5.7,4.7,14.5,7,26.4,7
				c1.5,0,3.2,0,5.2-0.1C1618.4,352.2,1619.7,352.2,1620.2,352.2z"/>
			<path class="st1" d="M1718.3,352.2l-2.2,15.5c-0.6,0.1-2,0.2-4.2,0.2c-2.2,0.1-4.2,0.1-5.8,0.1c-16.7,0-29.3-3.5-37.8-10.4
				c-8.5-7-12.8-17.6-12.8-32c0-9,0.1-18.7,0.2-29.1c0.1-10.3,0.2-23.2,0.2-38.5h-20.5v-14.3h21.6v-28.9h17.7v28.9h43.7V258h-43.7
				c0,1.7-0.1,6.8-0.2,15.3s-0.2,14.7-0.2,18.8c0,3.4,0,7.6,0,12.6s0,10.9,0,17.7c0,10.6,2.8,18.2,8.5,22.9c5.7,4.7,14.5,7,26.4,7
				c1.5,0,3.2,0,5.2-0.1C1716.4,352.2,1717.7,352.2,1718.3,352.2z"/>
			<path class="st1" d="M1834,297.7c0,20.2,0,36.6-0.1,49.3c-0.1,12.7-0.1,19.5-0.1,20.5c-0.8,0.1-4.6,0.4-11.4,0.9
				s-15.5,0.8-26.1,0.8c-6.7,0-13.4-0.6-20.1-1.8c-6.8-1.2-12.6-3-17.5-5.2c-6.5-3-11.8-7.1-15.8-12.3c-4-5.2-6-11.5-6-18.8
				c0-7.7,2.4-14.4,7.1-20.1c4.8-5.7,11.4-10.2,19.8-13.7c5.3-2.2,12.3-4.2,21.2-5.9c8.8-1.7,18.9-3.1,30.2-4
				c-0.5-6.3-2.1-11.6-4.8-15.6c-2.7-4.1-6.6-7.2-11.8-9.3c-3.6-1.5-7.6-2.5-12-3.1s-9.5-0.9-15.4-0.9c-3.7,0-6.8,0.1-9.3,0.2
				c-2.6,0.2-6,0.4-10.4,0.6l2-16.2c1.2-0.1,3.6-0.2,7.3-0.4c3.6-0.2,8.6-0.3,14.8-0.3c9.6,0,18.2,1,25.7,3s13.8,5.2,18.7,9.7
				c4.6,4.2,8.1,9.5,10.5,15.7C1832.8,276.9,1834,285.9,1834,297.7z M1815.3,327.1c0-2.8,0-6.3,0-10.5s0-9.1-0.1-14.6
				c-3.6,0.2-9.8,0.9-18.8,2.1c-9,1.3-16.5,3.1-22.6,5.4c-4.6,1.7-8.6,4.3-12.1,7.7c-3.5,3.4-5.3,7.7-5.3,12.7
				c0,5.5,1.5,10,4.5,13.4s7.1,6,12.3,7.8c4,1.4,8.4,2.4,13.2,3c4.8,0.6,9.9,0.9,15.3,0.9c1.6,0,3.6,0,6-0.1s4.8-0.2,7.4-0.2
				c0-0.6,0-3.3,0.1-8.1C1815.3,341.7,1815.3,335.3,1815.3,327.1z"/>
			<path class="st1" d="M1959,351.4l-1.5,16.4c-0.7,0-1.7,0-3.1,0s-2.6,0-3.6,0c-10.5,0-20.3-1-29.4-3s-17.3-4.9-24.5-8.9
				c-9.8-5.4-17.5-12.5-23.1-21.4c-5.5-8.9-8.3-18.8-8.3-29.7c0-9.8,2.5-18.7,7.6-26.9c5-8.2,11.6-14.9,19.8-20.1
				c7.3-4.7,16.1-8.3,26.3-10.8s20.8-3.7,31.7-3.7c0.9,0,1.8,0,2.7,0s1.7,0,2.3,0l1,16.4c-0.6,0-1.2,0-1.9,0s-1.3,0-1.9,0
				c-9,0-16.7,0.5-23.1,1.6c-6.4,1.1-12.6,2.9-18.6,5.4c-8.1,3.3-14.4,8.4-19.2,15.4c-4.7,7-7.1,14.5-7.1,22.5
				c0,9.5,2.2,17.5,6.7,24c4.4,6.5,10.3,11.5,17.6,15c5.7,2.8,12.1,4.8,19.3,6s14.7,1.8,22.7,1.8c1.3,0,2.8,0,4.4,0
				C1957.3,351.4,1958.4,351.4,1959,351.4z"/>
			<path class="st1" d="M2010.4,367.3h-19.3c0.1-1.5,0.2-12.5,0.3-33s0.2-41.5,0.2-63c0-9.2,0-20.8-0.1-34.8c0-14-0.2-30.1-0.4-48.2
				h19.3c-0.2,14.4-0.4,31.1-0.4,50.2c0,19-0.1,30.4-0.1,33.9c0,8.4,0.1,25.9,0.2,52.7C2010.3,351.8,2010.4,365.9,2010.4,367.3z
				 M2097.8,364.8l-11.6,10.6c-18-18.3-34-34.3-48.1-47.9s-21.9-21.1-23.4-22.5v-0.2c2-1.8,10.5-10.4,25.7-25.9s27.4-28.2,36.8-38.1
				L2089,253c-9.7,9.4-19.8,19.2-30.5,29.6s-17.3,16.9-20,19.5v0.1C2062.3,327.3,2082.1,348.2,2097.8,364.8z"/>
		</g>
	</g>
</g>
</svg>
