<?xml version="1.0" encoding="utf-8"?>
<!-- Generator: Adobe Illustrator 22.0.1, SVG Export Plug-In . SVG Version: 6.00 Build 0)  -->
<svg version="1.1" id="图层_1" xmlns="http://www.w3.org/2000/svg" xmlns:xlink="http://www.w3.org/1999/xlink" x="0px" y="0px"
	 viewBox="0 0 200 200" style="enable-background:new 0 0 200 200;" xml:space="preserve">
<style type="text/css">
	.st0{fill:#F5F5F5;}
</style>
<path class="st0" d="M132.7,145.9l16.4-77.3c0.7-3.3,0.3-5.6-1.2-7c-1.5-1.4-3.4-1.7-5.7-0.8L45.8,97.9c-2.2,0.8-3.6,1.7-4.4,2.8
	c-0.8,1-0.9,2-0.3,3c0.6,0.9,1.8,1.7,3.6,2.2l24.7,7.7l57.3-36c1.6-1,2.8-1.3,3.6-0.7c0.5,0.4,0.4,0.9-0.4,1.7l-46.3,41.9l-1.8,25.4
	c1.7,0,3.4-0.8,5-2.5l12.1-11.6l25,18.4C128.4,152.8,131.4,151.4,132.7,145.9L132.7,145.9z M200,100c0,13.5-2.6,26.5-7.9,38.8
	c-5.3,12.4-12.4,23-21.3,31.9c-8.9,8.9-19.6,16-31.9,21.3c-12.4,5.3-25.3,7.9-38.8,7.9s-26.5-2.6-38.8-7.9
	c-12.4-5.3-23-12.4-31.9-21.3c-8.9-8.9-16-19.6-21.3-31.9C2.6,126.5,0,113.5,0,100s2.6-26.5,7.9-38.8s12.4-23,21.3-31.9
	s19.6-16,31.9-21.3S86.5,0,100,0s26.5,2.6,38.8,7.9s23,12.4,31.9,21.3c8.9,8.9,16,19.6,21.3,31.9S200,86.5,200,100L200,100z"/>
</svg>
